<?xml version="1.0" standalone="no"?><!DOCTYPE svg PUBLIC "-//W3C//DTD SVG 1.1//EN" "http://www.w3.org/Graphics/SVG/1.1/DTD/svg11.dtd"><svg t="1653751997811" class="icon" viewBox="0 0 1024 1024" version="1.1" xmlns="http://www.w3.org/2000/svg" p-id="5421" xmlns:xlink="http://www.w3.org/1999/xlink" width="200" height="200"><defs><style type="text/css">@font-face { font-family: feedback-iconfont; src: url("//at.alicdn.com/t/font_1031158_u69w8yhxdu.woff2?t=1630033759944") format("woff2"), url("//at.alicdn.com/t/font_1031158_u69w8yhxdu.woff?t=1630033759944") format("woff"), url("//at.alicdn.com/t/font_1031158_u69w8yhxdu.ttf?t=1630033759944") format("truetype"); }
</style></defs><path d="M415.0272 610.0736a20.8384 20.8384 0 0 0 20.864-20.864v-171.2128a20.8384 20.8384 0 0 0-41.7024 0v171.2128a20.8384 20.8384 0 0 0 20.8384 20.864z" fill="#1296db" p-id="5422"></path><path d="M508.416 609.8688a20.864 20.864 0 0 0 21.1712-20.48v-66.56a20.8896 20.8896 0 0 0-41.7792 0v66.56a20.8896 20.8896 0 0 0 20.608 20.48z" fill="#1296db" p-id="5423"></path><path d="M604.9536 609.664a20.864 20.864 0 0 0 21.1712-20.48V455.68a20.8896 20.8896 0 1 0-41.7536 0.5888v132.9152a20.864 20.864 0 0 0 20.5824 20.48z" fill="#1296db" p-id="5424"></path><path d="M512 0a512 512 0 1 0 512 512A512 512 0 0 0 512 0z m234.0608 738.3552a66.3296 66.3296 0 0 1-66.2528 66.2272H335.7952a66.3552 66.3552 0 0 1-66.2784-66.2272V281.8048a66.3552 66.3552 0 0 1 66.2784-66.2272h275.2512a20.7104 20.7104 0 0 1 14.592 5.9392l114.1248 111.488a20.8128 20.8128 0 0 1 6.2976 14.9248z" fill="#1296db" p-id="5425"></path><path d="M616.2432 348.2624h79.36l-79.36-77.4656z" fill="#1296db" p-id="5426"></path><path d="M634.88 641.8944h-243.456a20.864 20.864 0 0 0 0 41.728h243.968a20.864 20.864 0 1 0-0.512-41.728z" fill="#1296db" p-id="5427"></path></svg>